<?xml version="1.0" encoding="UTF-8" standalone="no"?>
<!-- Created with Inkscape (http://www.inkscape.org/) -->

<svg
   xmlns:dc="http://purl.org/dc/elements/1.1/"
   xmlns:cc="http://creativecommons.org/ns#"
   xmlns:rdf="http://www.w3.org/1999/02/22-rdf-syntax-ns#"
   xmlns:svg="http://www.w3.org/2000/svg"
   xmlns="http://www.w3.org/2000/svg"
   version="1.1"
   width="600"
   height="682.69342"
   id="svg2">
  <metadata
     id="metadata8">
    <rdf:RDF>
      <cc:Work
         rdf:about="">
        <dc:format>image/svg+xml</dc:format>
        <dc:type
           rdf:resource="http://purl.org/dc/dcmitype/StillImage" />
        <dc:title></dc:title>
      </cc:Work>
    </rdf:RDF>
  </metadata>
  <defs
     id="defs6" />
  <path
     d="m 53.595325,630.57472 c 0,-2.12132 3.77393,-8.04256 6.61958,-10.38602 0.99525,-0.81962 1.31922,-1.90727 0.93815,-3.14968 -0.82032,-2.67456 -0.71927,-2.6593 -4.57684,-0.69131 -5.76815,2.94268 -8.86191,-0.4618 -4.57062,-5.02967 1.10544,-1.17669 2.46946,-4.23997 3.03114,-6.8073 0.56169,-2.56732 2.0598,-8.31249 3.32914,-12.76702 3.3888,-11.8924 6.02833,-22.74383 6.02833,-24.78315 0,-0.98369 0.37118,-2.4917 0.82485,-3.35114 0.45366,-0.85945 1.33499,-2.93255 1.95851,-4.60689 0.62352,-1.67434 2.0353,-4.11577 3.13729,-5.42543 1.92779,-2.29103 7.57795,-12.70245 7.57795,-13.96369 0,-0.33714 0.77142,-2.31183 1.71426,-4.38821 0.94285,-2.07638 2.40503,-6.20498 3.24931,-9.17467 0.84427,-2.96969 1.89517,-5.78415 2.33531,-6.25435 0.44015,-0.4702 0.80028,-1.9078 0.80028,-3.19467 0,-1.28686 0.38173,-2.72446 0.8483,-3.19467 0.46656,-0.4702 1.3044,-2.67722 1.86187,-4.90449 2.22516,-8.89031 2.21727,-8.35625 0.11357,-7.68856 -2.35564,0.74765 -2.55872,-0.90352 -0.47671,-3.876 2.8418,-4.05724 6.62943,-12.32063 6.64063,-14.48773 0.009,-1.71483 0.25138,-1.96479 1.09129,-1.12488 1.54573,1.54573 2.80925,1.33253 2.15817,-0.36417 -0.52473,-1.3674 0.58485,-6.77176 2.197765,-10.70468 0.40597,-0.9899 1.23244,-3.40851 1.8366,-5.37469 0.60416,-1.96618 3.03652,-7.43311 5.40524,-12.14874 2.36872,-4.71562 5.00809,-10.76611 5.86525,-13.44554 0.85716,-2.67943 2.50089,-6.72901 3.65275,-8.99907 1.15185,-2.27006 2.09597,-4.64578 2.09804,-5.27938 0.004,-1.00381 2.96991,-8.77846 5.39794,-14.14641 0.44776,-0.9899 2.51809,-6.05187 4.60073,-11.24883 2.08264,-5.19696 4.05457,-9.6515 4.38206,-9.89897 0.32747,-0.24748 1.29004,-2.21378 2.13902,-4.36956 0.84898,-2.15579 2.10829,-4.4843 2.79846,-5.17447 3.11034,-3.11034 6.67695,0.19796 4.48414,4.15938 -1.53949,2.78119 -1.65671,4.30059 -0.22103,2.86491 0.59394,-0.59394 1.72937,-1.07989 2.52318,-1.07989 1.87805,0 7.56734,-5.87007 6.83607,-7.05328 -0.87266,-1.41201 3.22674,-8.3892 7.52347,-12.80494 2.13499,-2.19412 4.78168,-5.40666 5.88155,-7.13898 1.09987,-1.73232 3.27164,-4.50861 4.82617,-6.16954 1.55452,-1.66092 2.8264,-3.40717 2.8264,-3.88055 0,-0.87576 -7.42624,5.43069 -17.39798,14.7746 -5.83147,5.46432 -6.9288,5.95794 -8.64566,3.88925 -1.7521,-2.11115 0.64424,-5.43375 12.70274,-17.61282 18.77576,-18.96348 30.66814,-29.69691 32.90344,-29.69691 2.3425,0 11.93419,-9.14907 11.93419,-11.38346 0,-0.31021 1.66905,-2.4316 3.70901,-4.71423 9.11613,-10.2005 14.6574,-17.10267 16.33643,-20.34853 0.76809,-1.48484 2.64269,-4.11707 4.16579,-5.84939 1.5231,-1.73232 3.88666,-4.51145 5.25236,-6.17584 1.3657,-1.6644 4.40664,-5.00329 6.75764,-7.41979 2.35101,-2.41648 4.27456,-4.91879 4.27456,-5.56068 0,-0.64189 1.85343,-3.17487 4.11873,-5.62886 2.2653,-2.45398 5.10509,-5.98038 6.31064,-7.83644 1.20554,-1.85606 2.53797,-3.37465 2.96093,-3.37465 0.42297,0 1.81521,-1.58089 3.09389,-3.51309 1.27867,-1.9322 3.76223,-4.90905 5.51902,-6.61523 1.7568,-1.70618 3.19417,-3.36033 3.19417,-3.67588 0,-0.58334 1.1953,-2.14874 5.62442,-7.36588 1.36111,-1.60328 2.47474,-3.31819 2.47474,-3.81094 0,-0.49274 0.6691,-1.4512 1.48689,-2.1299 0.81778,-0.6787 3.09564,-3.4117 5.06191,-6.07334 l 3.57502,-4.83933 -1.46228,-3.06645 c -1.84721,-3.87363 -1.83991,-4.04357 0.39214,-9.12912 4.28404,-9.76086 6.13338,-12.64478 8.17324,-12.74568 1.93697,-0.0958 1.27419,3.49548 -1.52726,8.27541 -2.35564,4.01928 -2.93244,5.71895 -2.18918,6.45074 1.23907,1.21992 3.71394,-1.68002 3.00668,-3.52309 -0.90912,-2.36914 1.45159,-5.64958 10.7025,-14.87227 l 6.97176,-6.9505 -1.43582,-3.47854 c -0.78972,-1.9132 -2.32089,-4.69342 -3.40262,-6.17826 -1.08172,-1.48485 -2.45058,-3.81336 -3.04189,-5.17446 -0.95721,-2.20334 -0.8896,-2.47475 0.61651,-2.47475 1.91852,0 4.36308,3.71837 6.81231,10.36209 0.90966,2.4675 1.93716,4.81629 2.28335,5.21954 0.65536,0.76338 5.56145,-4.99509 6.52649,-7.66039 0.30424,-0.84029 1.85065,-2.19874 3.43646,-3.0188 3.88479,-2.0089 7.55823,-6.55918 7.55823,-9.36236 0,-1.51125 0.68842,-2.5914 2.02548,-3.178 1.70013,-0.74588 1.937,-1.36022 1.47468,-3.8246 -0.42148,-2.24668 -0.23623,-2.93598 0.78902,-2.93598 0.73691,0 1.84396,0.60744 2.46012,1.34986 1.72475,2.0782 3.46356,1.61709 5.30202,-1.40601 2.0138,-3.31143 10.84949,-10.84588 15.84578,-13.51215 1.97979,-1.05651 5.01698,-3.22954 6.7493,-4.82894 5.68031,-5.24446 13.26439,-8.68214 12.02421,-5.45028 -0.2849,0.74242 -0.1057,1.34986 0.3982,1.34986 0.93303,0 2.66403,-1.99839 8.27544,-9.55371 3.62167,-4.87629 21.26417,-22.78466 29.50749,-29.95216 3.07387,-2.67271 5.58886,-5.46339 5.58886,-6.20152 0,-0.73813 1.20546,-2.60095 2.6788,-4.1396 1.47334,-1.53865 4.0945,-4.34557 5.8248,-6.2376 l 3.146,-3.44005 2.65568,1.56875 c 2.63715,1.5578 2.67834,1.54885 5.9053,-1.28446 3.62067,-3.179 3.98067,-3.27304 7.09589,-1.85365 1.84313,0.83979 2.65305,0.65999 5.06723,-1.12489 C 457.25579,50.4054 458.91818,50 463.64207,50 l 5.83793,0 5.30192,5.39944 c 2.91606,2.96969 6.02571,6.04011 6.91034,6.82315 2.2426,1.98506 7.19406,7.60319 11.66823,13.23924 4.12505,5.19626 10.39793,10.98902 16.03748,14.80996 1.97979,1.34136 5.21945,3.86208 7.19925,5.6016 9.68327,8.50809 13.48126,11.92643 15.77189,14.19537 1.37411,1.36111 2.9211,2.47474 3.43776,2.47474 1.50003,0 8.79726,9.46616 11.27526,14.62659 3.48855,7.26489 3.77186,10.44668 1.26218,14.17505 -1.16437,1.72977 -3.92349,4.09282 -6.1314,5.25119 -6.03791,3.16782 -13.3953,9.81208 -13.93826,12.58727 -1.7294,8.83941 -2.77807,11.80736 -5.30119,15.0035 -1.56291,1.97979 -3.52491,4.68255 -4.36,6.00612 -0.83509,1.32356 -2.31675,2.65989 -3.29257,2.96961 -2.00508,0.63639 -6.22841,7.21898 -8.09819,12.62202 -0.68512,1.9798 -2.19704,5.11018 -3.35981,6.9564 -2.41606,3.83617 -2.64446,5.19234 -0.87445,5.19234 0.68181,0 1.76817,0.63682 2.41413,1.41515 1.0123,1.21974 0.40623,2.09947 -4.38935,6.37123 -3.06009,2.72584 -5.5638,5.68975 -5.5638,6.58645 0,0.98856 -0.88566,1.85266 -2.24977,2.19503 -1.77737,0.44609 -2.24977,1.13431 -2.24977,3.27758 0,2.14658 -0.65752,3.10087 -3.14967,4.57128 -1.73232,1.02209 -3.14967,2.2233 -3.14967,2.66937 0,0.44606 -0.53685,0.81101 -1.193,0.81101 -0.65614,0 -2.14408,1.0124 -3.30653,2.24977 -2.56715,2.7326 -1.66579,2.91769 1.88742,0.38757 3.51774,-2.50485 6.57737,-2.01638 6.93877,1.10776 0.221,1.91049 -0.82618,3.49506 -5.17446,7.82987 -2.99836,2.98905 -5.45155,6.06201 -5.45155,6.82881 0,0.76679 -0.62584,1.39417 -1.39076,1.39417 -1.72576,0 -5.30222,3.68101 -17.93392,18.45817 -2.95687,3.45909 -9.43619,10.56295 -14.3985,15.78635 -9.5582,10.06111 -21.22942,22.92894 -22.20491,24.48149 -0.32113,0.5111 -1.78738,0.68852 -3.2585,0.3943 -2.47854,-0.49572 -3.50287,0.30742 -13.97032,10.95357 -6.21261,6.31868 -13.80858,14.49849 -16.87995,18.17737 -3.07135,3.67888 -8.66313,10.07338 -12.42615,14.20998 -3.76303,4.13661 -7.42628,8.38866 -8.14054,9.44902 -0.71428,1.06036 -4.18812,5.16758 -7.71965,9.12717 -3.53154,3.95959 -8.69653,10.07742 -11.47776,13.59519 -2.78124,3.51776 -5.59255,6.9599 -6.24737,7.6492 -0.65482,0.6893 -2.36679,3.07558 -3.80439,5.30285 -4.50006,6.97194 -10.64529,14.39851 -11.91428,14.39851 -0.6694,0 -1.2171,0.39329 -1.2171,0.87398 0,1.18537 -11.44224,17.93952 -14.08347,20.62151 -1.16316,1.18113 -2.11485,2.49724 -2.11485,2.92469 0,0.42746 -0.43435,0.7772 -0.96522,0.7772 -0.53087,0 -0.12592,-1.06701 0.89991,-2.37113 1.02582,-1.30412 1.86512,-2.70876 1.86512,-3.12142 0,-1.92081 -3.00795,0.80923 -7.36822,6.68744 -6.14374,8.28254 -6.40093,8.70408 -5.31067,8.70408 0.919,0 1.72772,-0.77901 4.20403,-4.04958 1.22007,-1.61139 1.22159,-1.51718 0.0145,0.89991 -2.3088,4.62305 -6.15982,9.84803 -12.34556,16.75014 -3.27664,3.65608 -9.12714,10.29205 -13.00113,14.74659 -3.874,4.45453 -8.98731,10.12394 -11.36292,12.59869 -2.3756,2.47474 -4.32053,4.97844 -4.32207,5.56377 -0.002,0.58533 -0.75397,1.30266 -1.67207,1.59405 -0.9181,0.2914 -4.1958,3.32432 -7.28377,6.73984 -5.61455,6.21009 -6.59757,6.84824 -24.79344,16.09532 -2.96969,1.50919 -7.62671,3.77134 -10.34892,5.02701 -7.26253,3.34996 -9.68504,4.89007 -19.32288,12.28453 -13.19148,10.12091 -15.43654,11.61696 -18.28928,12.18751 -3.7497,0.74994 -4.16356,-1.37182 -0.97904,-5.0192 1.44159,-1.65112 2.43021,-3.19291 2.19692,-3.4262 -0.62251,-0.62251 -7.78961,3.23205 -10.40086,5.59372 -1.23737,1.11909 -4.47704,3.329 -7.19925,4.91089 -2.72222,1.5819 -7.37924,4.46571 -10.34893,6.40849 -2.96969,1.94278 -8.43662,4.99722 -12.14874,6.78764 -3.71211,1.79042 -8.84271,4.63648 -11.40134,6.32459 -2.55861,1.68812 -4.85848,3.06929 -5.11082,3.06929 -0.25233,0 -3.01841,1.70139 -6.14684,3.78087 -3.12843,2.07948 -7.1054,4.26008 -8.83772,4.84577 -1.94891,0.65893 -3.63371,2.04791 -4.41932,3.64336 -1.74877,3.55149 -4.43593,5.72813 -7.071615,5.72813 -2.44088,0 -8.37613,4.01397 -17.24051,11.65963 -12.41503,10.70817 -15.45145,13.74187 -20.08003,20.06208 -4.02055,5.48992 -6.98275,6.78791 -6.98275,3.05972 z M 161.13415,545.55771 c 3.46464,-2.26896 7.55382,-4.82056 9.08706,-5.67023 3.07502,-1.70408 9.73084,-6.33501 23.76735,-16.53666 1.36201,-0.9899 4.44842,-3.20041 6.85869,-4.91225 5.51553,-3.91727 4.60313,-3.2026 14.96009,-11.71807 4.82787,-3.96946 9.03822,-7.2172 9.35633,-7.2172 0.6877,0 7.24745,-5.20654 12.91249,-10.24877 6.66326,-5.9307 7.78007,-8.91309 3.98513,-10.64218 -1.8322,-0.83481 -2.46727,-0.80678 -3.04906,0.13458 -1.17483,1.90092 -2.90864,0.26299 -1.83841,-1.73675 1.51639,-2.8334 1.03579,-3.60417 -2.24734,-3.60417 -2.59668,0 -3.14967,-0.33079 -3.14967,-1.88406 0,-1.12724 -0.72298,-2.07313 -1.79981,-2.35472 -0.9899,-0.25887 -1.79981,-0.8284 -1.79981,-1.26561 0,-1.53056 -2.58362,-0.77863 -3.11884,0.90769 -0.29722,0.93647 -1.3369,1.91095 -2.31041,2.16552 -1.37195,0.35878 -1.77076,1.24074 -1.77337,3.92177 -0.005,4.25253 -2.90897,9.30829 -5.34816,9.30829 -1.32799,0 -2.03666,-0.95926 -2.79831,-3.78782 -0.87529,-3.2506 -2.88711,-5.99839 -4.44886,-6.07638 -0.24747,-0.0123 -1.45219,1.49335 -2.67713,3.34602 -1.22495,1.85268 -3.95842,5.43696 -6.07437,7.96506 -2.11596,2.5281 -3.8638,4.95785 -3.88409,5.39944 -0.0203,0.44159 -1.6342,2.56935 -3.58644,4.72836 -2.94106,3.25256 -3.93744,3.8281 -5.81248,3.3575 -2.92167,-0.7333 -2.84977,-1.24219 0.71113,-5.03321 1.62716,-1.73232 4.15464,-4.8324 5.61661,-6.88905 1.46197,-2.05667 5.0916,-6.91616 8.06586,-10.79888 8.78014,-11.46201 9.13741,-14.4072 3.36715,-27.75735 -3.28419,-7.59835 -4.92317,-9.81923 -7.89729,-10.70116 -1.41819,-0.42053 -2.18967,0.14217 -3.48009,2.53833 -0.91188,1.69326 -2.72415,4.08363 -4.02727,5.31192 -2.9076,2.74067 -8.51211,4.44729 -9.93431,3.0251 -1.55041,-1.55042 -1.1601,-2.42395 1.08303,-2.42395 2.13561,0 7.65821,-5.07024 9.55692,-8.77409 0.90009,-1.75584 0.80933,-2.02479 -0.68332,-2.02479 -1.98219,0 -3.4044,1.47699 -3.87757,4.02689 -0.20468,1.10302 -1.70128,2.29777 -3.94545,3.14967 -1.98861,0.75491 -4.50669,2.27437 -5.59571,3.3766 -1.08902,1.10222 -3.41326,2.60288 -5.16499,3.3348 -2.34962,0.98173 -3.32447,2.02836 -3.71692,3.99061 -0.57607,2.88038 -2.77692,3.99083 -5.21045,2.62896 -1.03733,-0.58053 -1.24825,-1.19257 -0.65721,-1.90711 0.47869,-0.57873 0.85654,-2.06464 0.83964,-3.30201 -0.0169,-1.23737 0.50703,-6.70431 1.16426,-12.14874 1.56231,-12.94216 1.32371,-18.78847 -0.91256,-22.36001 -1.65326,-2.64044 -7.35522,-7.78686 -8.6274,-7.78686 -1.06175,0 -3.43866,2.87936 -7.31362,8.85964 -2.13428,3.29385 -3.88916,5.63106 -3.89975,5.19381 -0.0218,-0.89706 6.04656,-13.0718 7.27024,-14.5862 0.43672,-0.54049 0.54374,-1.23302 0.23781,-1.53895 -0.648,-0.648 -5.72476,1.80462 -5.73318,2.76974 -0.003,0.35851 -1.21801,1.34166 -2.69972,2.1848 -1.48173,0.84314 -2.69678,2.2605 -2.70014,3.14968 -0.004,0.88918 -1.24855,5.05883 -2.76712,9.26589 -1.51856,4.20707 -2.83193,8.4772 -2.91859,9.4892 -0.0867,1.01199 -0.90812,2.98519 -1.82544,4.38487 -1.4034,2.14135 -1.49084,2.87567 -0.55139,4.63103 1.52385,2.84734 0.54443,8.19854 -2.66447,14.55773 -1.43852,2.85076 -3.89638,8.0179 -5.46192,11.48254 -1.56553,3.46464 -4.83371,10.34893 -7.26261,15.29841 -5.16942,10.53399 -9.8389,23.91365 -9.8389,28.19187 0,2.36005 0.72032,3.62233 3.34191,5.85639 5.80376,4.94586 12.26657,11.91124 16.45604,17.73573 5.49421,7.63845 13.40283,16.15896 14.9985,16.15896 0.75622,0 1.03638,0.43631 0.66549,1.03642 -0.3523,0.57003 0.0595,1.5483 0.91505,2.17391 1.31318,0.96022 2.49156,0.64172 7.56171,-2.04382 3.30336,-1.74971 8.84082,-5.03771 12.30546,-7.30668 z M 132.7871,508.60858 c 0,-0.49495 0.40495,-1.15018 0.8999,-1.45608 0.49495,-0.30589 0.89991,-0.15121 0.89991,0.34374 0,0.49495 -0.40496,1.15018 -0.89991,1.45608 -0.49495,0.30589 -0.8999,0.15121 -0.8999,-0.34374 z m 3.59962,-8.02019 c 0,-0.47559 0.65414,-1.40761 1.45366,-2.07114 1.25765,-1.04376 1.40932,-0.97766 1.12488,0.49017 -0.33894,1.74908 -2.57854,3.12223 -2.57854,1.58097 z m 64.1689,0.0741 c -0.59089,-0.20654 -0.85128,-0.9568 -0.57865,-1.66725 0.63669,-1.65919 3.90274,-1.69111 3.90274,-0.0382 0,1.40567 -1.6945,2.27501 -3.32409,1.70538 z m -2.81114,31.68744 c 1.47053,-1.23738 2.42402,-2.24977 2.11885,-2.24977 -0.89391,0 -7.6824,3.59454 -7.6824,4.06787 0,1.21177 3.20903,0.16309 5.56355,-1.8181 z m 21.40758,-15.71322 c 0.72809,-0.46045 1.02217,-1.13883 0.6535,-1.50748 -0.36866,-0.36867 -1.35486,0.0143 -2.19157,0.85096 -1.62647,1.62649 -0.65282,2.04208 1.53807,0.65652 z m 30.87292,-13.54112 c 2.36478,-2.96563 3.78323,-5.39206 3.15208,-5.39206 -1.21978,0 -9.70146,8.78779 -9.70146,10.0516 0,2.08814 2.70124,0.16636 6.54938,-4.65954 z M 93.837855,494.61265 c 0.56563,-1.84298 0.63194,-3.20847 0.15581,-3.20847 -1.00764,0 -4.39402,5.39358 -4.39871,7.00593 -0.007,2.34393 3.25367,-0.57426 4.2429,-3.79746 z m 162.236435,-6.35814 c 0.91751,-1.10555 0.85602,-1.34986 -0.33977,-1.34986 -0.80302,0 -1.46005,0.60743 -1.46005,1.34986 0,0.74242 0.1529,1.34986 0.33977,1.34986 0.18687,0 0.84389,-0.60744 1.46005,-1.34986 z m -0.67493,-18.26258 c 1.85605,-2.32524 3.37465,-4.93805 3.37465,-5.80624 0,-0.86819 0.39209,-1.57852 0.8713,-1.57852 1.08847,0 14.42711,-13.43908 14.42711,-14.53574 0,-0.44158 1.53794,-2.5149 3.41765,-4.60737 1.87971,-2.09248 4.09774,-4.88978 4.92894,-6.21623 0.83121,-1.32646 2.73541,-3.13484 4.23155,-4.01864 1.49615,-0.88379 2.72027,-1.93026 2.72027,-2.32549 0,-1.39891 8.77378,-11.6231 20.70536,-24.12819 1.24151,-1.30119 4.47331,-4.96348 7.18179,-8.13843 2.70847,-3.17496 7.05839,-8.17018 9.66648,-11.10048 4.79787,-5.39062 5.5771,-6.82092 3.71601,-6.82092 -1.39173,0 -17.34069,15.67913 -26.0887,25.64734 -17.08521,19.46829 -19.14812,21.60514 -22.49961,23.30599 -1.07454,0.54532 -2.3984,1.77615 -2.94192,2.73518 -0.54354,0.95903 -2.04998,2.67242 -3.34765,3.80755 -2.0439,1.78787 -8.88943,12.17871 -8.88943,13.49327 0,1.41225 -9.74704,13.25113 -13.54949,16.4574 -4.07828,3.43886 -5.38744,6.00486 -3.84869,7.54361 1.25641,1.25642 2.6584,0.37749 5.92438,-3.71409 z m 33.39699,-5.13499 c 0.2849,-0.74242 0.3778,-1.34986 0.20647,-1.34986 -0.17133,0 -0.81565,0.60744 -1.43181,1.34986 -0.64572,0.77805 -0.73319,1.34986 -0.20646,1.34986 0.5026,0 1.1469,-0.60744 1.4318,-1.34986 z m 5.55304,-6.97428 3.34758,-4.72451 -3.33702,3.14968 c -3.66892,3.46293 -5.56244,6.29934 -4.20529,6.29934 0.46593,0 2.35356,-2.12603 4.19473,-4.72451 z m -49.64944,-2.96576 c 4.25579,-5.65132 5.96049,-6.98448 5.98868,-4.68344 0.009,0.77192 0.27319,0.71481 0.84053,-0.18201 0.45471,-0.71879 0.65331,-1.58751 0.44134,-1.9305 -0.21198,-0.34298 0.2197,-0.8558 0.95928,-1.1396 0.73958,-0.2838 1.34469,-1.54111 1.34469,-2.79402 0,-1.25291 0.30611,-2.27801 0.68023,-2.27801 0.37413,0 1.21986,-1.2191 1.8794,-2.70912 1.62328,-3.66723 8.23925,-10.53181 8.23925,-8.54886 0,0.81816 0.5633,2.05087 1.25177,2.73934 1.06909,1.06909 1.63564,0.88492 3.88211,-1.26192 1.44669,-1.38253 3.54864,-3.99954 4.67102,-5.81558 1.12237,-1.81604 2.33804,-3.30189 2.70148,-3.30189 0.36344,0 1.57119,-1.61984 2.6839,-3.59963 1.11271,-1.97979 2.48818,-3.59963 3.0566,-3.59963 0.56843,0 1.92357,-1.11363 3.01143,-2.47474 1.08786,-1.36111 2.27319,-2.18205 2.63404,-1.82431 0.66093,0.65522 -2.2732,4.94395 -6.49312,9.49076 -2.53736,2.73391 -11.99979,16.69096 -11.99979,17.69965 0,0.79988 5.28106,-3.3095 5.34965,-4.16275 0.0274,-0.34067 1.26466,-1.94951 2.74951,-3.57521 1.48485,-1.6257 2.69972,-3.38301 2.69972,-3.90512 0,-0.52212 0.70868,-1.57848 1.57484,-2.34747 2.71745,-2.4126 7.14374,-7.60633 10.69459,-12.54885 1.88091,-2.61809 4.24306,-5.6322 5.2492,-6.69801 1.00615,-1.06581 2.43788,-2.71734 3.18164,-3.67007 0.74375,-0.95273 2.26235,-2.90049 3.37465,-4.32834 2.81625,-3.6152 2.56574,-4.47687 -1.12731,-3.87757 -3.35807,0.54494 -4.50899,-0.98856 -1.35998,-1.81205 0.98434,-0.25741 1.58924,-0.79235 1.34425,-1.18875 -0.24499,-0.3964 0.97444,-1.59827 2.70985,-2.6708 1.7354,-1.07254 3.15528,-2.66499 3.15528,-3.5388 0,-0.8738 0.75617,-2.46059 1.68039,-3.52622 1.75934,-2.02854 3.71905,-2.57529 3.71905,-1.03761 0,0.49495 -0.32938,0.89991 -0.73194,0.89991 -0.40258,0 -1.28808,1.41735 -1.96778,3.14967 -0.67971,1.73232 -1.56521,3.14968 -1.96778,3.14968 -0.40257,0 -0.73194,0.58731 -0.73194,1.30514 0,0.71783 -0.7053,1.69985 -1.56734,2.18227 -0.86204,0.48242 -1.23385,1.21062 -0.82624,1.61823 0.40761,0.40761 2.5069,-1.18185 4.66511,-3.53213 2.59252,-2.82325 4.65768,-4.27323 6.0862,-4.27323 1.1892,0 2.89516,-0.80992 3.791,-1.79982 1.39851,-1.54532 1.42883,-1.79981 0.21447,-1.79981 -0.77789,0 -1.59513,0.5062 -1.81608,1.12488 -0.22097,0.61869 -0.66979,0.87854 -0.99741,0.57744 -0.32761,-0.30109 0.21616,-1.51597 1.20838,-2.69972 1.4522,-1.73252 1.964,-1.90956 2.62429,-0.90776 1.02858,1.56059 2.04619,0.89185 11.0963,-7.2922 3.61245,-3.26675 11.07636,-10.01104 16.58647,-14.98731 8.97072,-8.10161 17.8926,-16.91793 22.52863,-22.26207 24.54055,-28.28889 22.16109,-26.21481 27.65554,-24.10639 0.91566,0.35137 1.6131,-0.0498 1.94911,-1.12105 0.28777,-0.91751 0.92215,-2.40905 1.40972,-3.31453 0.92702,-1.7216 -1.1199,-5.08188 -6.5909,-10.81985 l -2.44776,-2.56721 -6.54219,6.33814 c -3.5982,3.48598 -6.2558,6.62454 -5.90575,6.97458 0.76702,0.76701 8.05003,-5.54839 9.71174,-8.42146 0.82178,-1.42084 1.46803,-1.75655 2.12216,-1.10243 0.65413,0.65414 0.56752,1.53787 -0.2844,2.90202 -0.87362,1.39889 -0.93168,2.05921 -0.20245,2.3023 0.56238,0.18746 1.00714,1.42072 0.98836,2.74058 -0.034,2.38732 -1.54136,3.79934 -10.58827,9.91843 l -3.13323,2.11923 2.02651,-2.84597 c 2.84808,-3.99977 1.50967,-4.5569 -2.23289,-0.92948 -3.43549,3.32981 -4.24063,2.53363 -1.26427,-1.2502 1.02957,-1.30888 1.701,-2.88208 1.49208,-3.49601 -0.21963,-0.64542 -3.42857,1.84471 -7.60784,5.90365 -6.31022,6.12857 -7.52806,6.94459 -9.59123,6.42677 -1.41512,-0.35517 -2.36325,-0.21807 -2.36325,0.34174 0,0.51418 0.81366,1.06428 1.80814,1.22244 1.72186,0.27384 1.69596,0.4164 -0.54261,2.98728 -1.29291,1.48485 -3.26215,3.85382 -4.37608,5.26439 -1.77605,2.24897 -2.24796,2.42563 -3.8339,1.43519 -1.56,-0.97424 -2.26168,-0.78384 -5.10574,1.38544 -1.81347,1.38319 -3.47701,2.33508 -3.69677,2.11532 -0.71218,-0.71218 3.32495,-5.61924 7.28144,-8.85048 2.12114,-1.73232 3.88122,-3.60628 3.9113,-4.16437 0.0301,-0.55807 0.66213,-1.51881 1.40455,-2.13497 1.97394,-1.63822 1.64766,-2.91552 -0.56533,-2.21315 -1.90029,0.60313 -1.90203,0.59025 -0.22498,-1.65519 1.53256,-2.05196 1.71704,-2.103 1.97778,-0.54721 0.46931,2.80027 1.91615,1.97063 3.67755,-2.10877 0.97549,-2.25925 5.19671,-7.43737 10.31358,-12.65156 11.20704,-11.42021 11.45241,-11.88569 7.20148,-13.66184 -3.87581,-1.61941 -4.28664,-1.37341 -4.42003,2.64676 -0.0792,2.38792 0.19599,2.91028 1.31884,2.50316 1.08681,-0.39406 0.99767,-0.006 -0.38085,1.6553 -3.07741,3.71003 -6.07551,6.0913 -7.15002,5.67897 -1.07544,-0.41269 -3.29121,1.83772 -8.52156,8.65474 -1.70887,2.22727 -4.2751,5.26446 -5.70275,6.7493 -1.42764,1.48485 -6.61601,7.7617 -11.52972,13.94855 -12.84767,16.17654 -39.09029,45.57475 -52.69071,59.02661 -5.62325,5.56182 -25.37451,28.0129 -34.76157,39.51316 -2.828,3.46464 -6.4823,7.71669 -8.12065,9.44901 -1.63835,1.73232 -4.5489,5.0956 -6.46788,7.47394 -1.91899,2.37834 -4.8393,5.79838 -6.4896,7.60008 -1.6503,1.80171 -3.00054,3.77035 -3.00054,4.37477 0,1.20157 4.40345,4.79929 5.8494,4.77911 0.49495,-0.007 2.86821,-2.62632 5.27393,-5.82088 z m 29.94907,-34.60533 c 0.31725,-1.73232 0.94346,-3.86672 1.39158,-4.74311 0.44812,-0.87639 0.5867,-1.96247 0.30794,-2.4135 -0.27875,-0.45103 0.61367,-0.94886 1.98318,-1.10628 1.61241,-0.18535 2.41494,-0.76224 2.27706,-1.63685 -0.11711,-0.74285 1.0086,-2.1602 2.50158,-3.14967 1.49299,-0.98948 2.94882,-2.71021 3.23519,-3.82384 0.28637,-1.11363 0.88173,-2.02479 1.32302,-2.02479 0.44129,0 0.80779,-0.70868 0.81442,-1.57484 0.0122,-1.59681 1.75553,-4.13053 6.86318,-9.97508 2.43631,-2.7878 3.02395,-3.06877 4.26465,-2.03908 1.60759,1.33418 1.02287,3.16073 -0.78923,2.46536 -1.70844,-0.65559 -2.37133,4.98822 -0.7271,6.19051 1.09818,0.80301 1.08713,1.29775 -0.0793,3.54592 -0.74552,1.43698 -2.18557,2.73938 -3.20014,2.89421 -2.09538,0.31978 -2.36894,-0.57921 -0.71977,-2.36535 0.61869,-0.67007 0.0239,-0.44734 -1.32158,0.49495 -1.34555,0.94229 -2.45919,1.99235 -2.47475,2.33346 -0.0155,0.34111 -1.64807,2.49177 -3.62786,4.77924 -1.9798,2.28747 -3.59963,4.45919 -3.59963,4.82604 0,0.36685 -2.02483,2.87322 -4.49963,5.56969 l -4.49963,4.90268 z m 17.42153,-13.72446 c 0,-0.62756 0.80991,-1.64682 1.79981,-2.26502 1.44448,-0.90208 1.79981,-0.89873 1.79981,0.017 0,0.62756 -0.80991,1.64682 -1.79981,2.26502 -1.44448,0.90208 -1.79981,0.89873 -1.79981,-0.017 z m 10.36756,-20.44183 c -0.31615,-0.51154 -0.14596,-0.93007 0.3782,-0.93007 0.52416,0 0.95302,-0.58353 0.95302,-1.29674 0,-1.4256 1.63114,-2.77153 2.41224,-1.99044 0.27097,0.27098 -0.33113,1.53997 -1.33799,2.81999 -1.06722,1.35674 -2.07038,1.93945 -2.40547,1.39726 z m 4.03094,-6.22601 c 0,-0.43802 1.0124,-1.45975 2.24977,-2.27051 2.45507,-1.60862 2.87443,-0.98106 0.99705,1.49208 -1.25759,1.65668 -3.24682,2.13359 -3.24682,0.77843 z m 17.99813,-4.19776 c 0,-1.47191 2.96421,-5.88294 4.50885,-6.7096 2.7705,-1.48273 2.29472,1.07469 -0.82032,4.40934 -2.47402,2.64846 -3.68853,3.40585 -3.68853,2.30026 z m -13.75338,-1.85992 c -0.88317,-0.88317 1.04401,-3.94479 2.4831,-3.94479 2.00523,0 2.55144,1.75114 0.75342,2.41546 -0.89754,0.33162 -1.86202,0.94227 -2.1433,1.35703 -0.28128,0.41475 -0.77323,0.49229 -1.09322,0.1723 z m 10.76732,-3.59669 c 0.26339,-0.6864 1.04301,-1.248 1.73248,-1.248 1.87039,0 1.51364,1.52189 -0.4789,2.04295 -1.21537,0.31782 -1.58954,0.0805 -1.25358,-0.79495 z m 4.78587,-12.8366 c 0,-0.43434 0.67374,-1.3455 1.4972,-2.02479 1.3576,-1.11992 1.3966,-1.04629 0.41829,0.78972 -1.1158,2.09404 -1.91549,2.60966 -1.91549,1.23507 z m 19.79795,-3.24271 c 0,-0.40417 1.83177,-2.95992 4.07062,-5.67942 4.64821,-5.64614 4.60258,-7.85185 -0.051,-2.46688 -1.6826,1.94702 -3.30529,3.29401 -3.606,2.99331 -0.57729,-0.57729 1.73025,-3.59237 6.5307,-8.53312 2.86838,-2.95222 4.7545,-3.78834 4.7545,-2.10764 0,0.4794 0.60744,0.63856 1.34986,0.35367 0.74242,-0.2849 1.34986,-0.0986 1.34986,0.41391 0,1.51914 -2.76518,3.82595 -3.81122,3.17946 -0.57543,-0.35563 -0.70467,-0.17379 -0.31948,0.44949 0.38674,0.62573 -1.54807,3.27605 -4.81044,6.58942 -3.00155,3.04847 -5.45736,5.21198 -5.45737,4.8078 z m -9.89897,-8.51315 c 0,-0.46574 0.40495,-1.09708 0.8999,-1.40297 0.49495,-0.3059 0.89991,0.0751 0.89991,0.84679 0,0.77164 -0.40496,1.40297 -0.89991,1.40297 -0.49495,0 -0.8999,-0.38105 -0.8999,-0.84679 z m 22.22347,-10.80056 c 0.53453,-2.04408 0.82681,-2.2413 1.56103,-1.05331 0.27124,0.43887 -0.0779,1.27193 -0.776,1.85125 -1.037,0.86064 -1.1806,0.71468 -0.78503,-0.79794 z m 5.30643,-0.50138 c 0.81075,-1.23738 1.85139,-2.24977 2.31252,-2.24977 0.99007,0 -2.07225,4.42984 -3.09095,4.47126 -0.38262,0.0156 -0.0323,-0.98412 0.77843,-2.22149 z m -10.46389,-0.30206 c 0.59286,-1.15602 1.32474,-1.85506 1.62639,-1.55341 0.30165,0.30165 -0.18342,1.24749 -1.07794,2.10187 -1.55481,1.48504 -1.57895,1.46091 -0.54845,-0.54846 z m 9.93118,-3.61406 c 0,-0.86558 5.13453,-6.43281 5.93284,-6.43281 0.28476,0 -0.76519,1.61983 -2.33321,3.59963 -2.89415,3.65415 -3.59963,4.20942 -3.59963,2.83318 z m 6.7493,-2.83318 c 0.3059,-0.49495 0.96113,-0.89991 1.45608,-0.89991 0.49494,0 0.64963,0.40496 0.34373,0.89991 -0.30589,0.49495 -0.96112,0.8999 -1.45607,0.8999 -0.49495,0 -0.64964,-0.40495 -0.34374,-0.8999 z m 3.59963,-3.59963 c 0.89584,-0.9899 1.78276,-1.79981 1.97094,-1.79981 0.18818,0 -0.0913,0.80991 -0.62108,1.79981 -0.52978,0.9899 -1.41671,1.79981 -1.97095,1.79981 -0.55425,0 -0.27476,-0.80991 0.62109,-1.79981 z M 212.52746,453.25538 c -1.8572,-4.44489 -2.5489,-4.12594 -0.78584,0.36236 0.77977,1.98512 1.58084,3.44625 1.78013,3.24694 0.1993,-0.1993 -0.24813,-1.82348 -0.99429,-3.6093 z m 37.24748,-0.60033 c 0,-0.52416 -0.40496,-0.70274 -0.89991,-0.39684 -0.49494,0.30589 -0.8999,0.73475 -0.8999,0.95302 0,0.21826 0.40496,0.39684 0.8999,0.39684 0.49495,0 0.89991,-0.42886 0.89991,-0.95302 z m -21.80645,-10.08554 c 6.92682,-9.51128 12.77823,-17.00306 17.09872,-21.89214 2.0943,-2.36992 3.80782,-4.65227 3.80782,-5.07188 0,-0.41961 1.61984,-2.44871 3.59963,-4.50908 1.9798,-2.06038 3.59963,-4.21577 3.59963,-4.78978 0,-0.57399 1.72107,-2.90475 3.8246,-5.17945 3.67701,-3.97621 5.70321,-6.36979 11.19258,-13.22197 3.32004,-4.14429 6.47689,-7.7885 9.40717,-10.8595 1.30715,-1.36991 2.52202,-2.90714 2.69972,-3.41607 0.17769,-0.50891 2.39358,-3.0711 4.9242,-5.69374 2.53062,-2.62264 5.36893,-5.98331 6.30737,-7.46816 1.95496,-3.09323 4.82596,-6.53796 9.3394,-11.20578 1.73232,-1.79157 4.94881,-5.65737 7.14775,-8.59067 2.19894,-2.9333 6.85596,-8.52899 10.34893,-12.43486 3.49297,-3.90587 7.16076,-8.24699 8.15066,-9.64693 2.59879,-3.67529 7.99372,-9.72303 16.02107,-17.95969 5.62121,-5.76778 7.54768,-7.2051 9.65713,-7.2051 2.01226,0 4.12806,-1.40836 8.95133,-5.9584 3.47391,-3.27712 6.31621,-6.24303 6.31621,-6.59091 0,-0.69012 -5.40819,-3.95989 -8.99906,-5.44079 -1.23737,-0.5103 -3.05968,-2.13706 -4.04958,-3.61501 -0.9899,-1.47795 -2.05944,-2.68835 -2.37676,-2.68977 -0.31732,-0.002 -2.53716,-1.62243 -4.93299,-3.60222 -2.39582,-1.9798 -4.71066,-3.59963 -5.14409,-3.59963 -0.90961,0 -24.89125,24.64683 -26.24214,26.97003 -1.27197,2.18746 -12.02878,14.20339 -21.75509,24.30158 -4.54107,4.7147 -9.18256,9.78705 -10.31443,11.27189 -2.22848,2.92345 -12.15528,14.66592 -15.78575,18.67306 -1.23316,1.36111 -2.61274,2.47475 -3.06573,2.47475 -0.45299,0 -0.82363,0.59038 -0.82363,1.31196 0,0.72158 -1.61983,3.01477 -3.59962,5.09597 -1.9798,2.08119 -3.59963,4.12303 -3.59963,4.53742 0,0.41439 -0.30372,0.77003 -0.67493,0.79033 -0.37121,0.0203 -2.49724,2.50698 -4.72451,5.52597 -2.22726,3.01899 -5.27587,6.74825 -6.77467,8.28724 -1.49881,1.53899 -5.34591,6.39603 -8.54911,10.79343 -3.20321,4.3974 -7.14013,9.39863 -8.74872,11.11384 -1.60858,1.71522 -2.92469,3.32834 -2.92469,3.58472 0,0.25638 -1.21487,1.84981 -2.69972,3.54095 -3.94081,4.48834 -3.5503,5.46566 2.69972,6.75658 4.90946,1.01403 5.39684,1.32347 5.37082,3.40993 -0.0276,2.21087 -1.80653,5.44436 -2.99528,5.44436 -0.31665,0 -0.57573,-0.95737 -0.57573,-2.1275 0,-1.69129 -0.82731,-2.44346 -4.03488,-3.66844 -2.21918,-0.84752 -4.70659,-1.40873 -5.52758,-1.24715 -1.76961,0.34829 -9.62241,11.19326 -12.24871,16.91583 l -1.84645,4.02336 2.60477,1.82604 c 4.90148,3.43613 11.16451,10.78655 12.09906,14.19976 0.50821,1.85605 1.41459,3.36803 2.0142,3.35994 0.59961,-0.008 3.22355,-2.94403 5.83099,-6.52432 z m 38.90467,2.43633 c 0,-0.77163 -0.40495,-1.15269 -0.8999,-0.84679 -0.49495,0.3059 -0.89991,0.93723 -0.89991,1.40297 0,0.46574 0.40496,0.8468 0.89991,0.8468 0.49495,0 0.8999,-0.63134 0.8999,-1.40298 z m -3.02719,-10.02334 c -0.36866,-0.36867 -1.04703,-0.0746 -1.50749,0.6535 -1.38556,2.19088 -0.96996,3.16454 0.65652,1.53806 0.8367,-0.8367 1.21963,-1.8229 0.85097,-2.19156 z m -74.58974,-14.06071 c 0,-1.1492 1.16148,-3.88267 2.58108,-6.07437 1.41958,-2.1917 3.22297,-5.31766 4.00752,-6.94659 1.8483,-3.83753 9.44768,-12.14883 29.40336,-32.15794 8.89804,-8.92186 16.49148,-17.2235 16.8743,-18.44808 0.38282,-1.22458 1.75503,-3.52202 3.04936,-5.10542 6.32819,-7.74154 10.00253,-12.70581 10.00253,-13.51407 0,-0.49081 1.0124,-1.98477 2.24977,-3.31992 1.23737,-1.33514 2.24976,-2.84882 2.24976,-3.36372 0,-1.0071 2.19073,-4.06657 7.19925,-10.05417 1.73232,-2.07096 3.94736,-5.33083 4.9223,-7.24417 0.97495,-1.91333 2.29107,-3.67773 2.9247,-3.92088 0.63364,-0.24315 1.15207,-1.42387 1.15207,-2.62381 0,-1.19996 0.60903,-2.41544 1.3534,-2.70108 1.14534,-0.43952 4.00865,-3.80687 16.63724,-19.56608 1.44224,-1.79976 3.17476,-3.66963 12.83116,-13.84832 3.3409,-3.52161 6.07741,-6.72974 6.08113,-7.12917 0.004,-0.39944 1.86448,-2.54856 4.13502,-4.77583 2.27054,-2.22727 4.50901,-4.75826 4.97438,-5.62442 1.03575,-1.92775 4.24756,-2.07352 4.95691,-0.22497 0.2849,0.74242 1.20359,1.34986 2.04154,1.34986 0.83795,0 1.96603,0.44247 2.50683,0.98327 1.27634,1.27634 4.77613,-0.48243 4.77613,-2.40017 0,-0.74445 -3.23726,-4.67855 -7.19389,-8.74242 l -7.19389,-7.38886 -0.005,4.22144 c -0.003,2.3218 -0.39308,4.46107 -0.86694,4.75394 -0.98444,0.60841 -3.09485,-3.18436 -3.99269,-7.17557 -0.96716,-4.29931 -3.40795,-8.3345 -5.66276,-9.36187 -1.7383,-0.79201 -2.08222,-0.69188 -2.08502,0.60708 -0.002,0.85555 -2.33036,3.45173 -5.17446,5.76927 -2.84411,2.31756 -6.40418,5.35731 -7.91127,6.755 -1.50708,1.3977 -6.97402,5.96379 -12.14874,10.14687 -10.02741,8.10583 -11.90962,9.92372 -22.45722,21.68969 -3.71211,4.1409 -10.5746,11.79459 -15.24998,17.00821 -4.67537,5.21362 -18.12543,19.17934 -29.88901,31.03495 -11.76357,11.8556 -21.22194,21.72203 -21.01859,21.92539 0.5679,0.56786 6.76379,-3.4705 6.76379,-4.4085 0,-0.45458 0.48912,-0.82651 1.08694,-0.82651 0.59782,0 2.61517,-1.49228 4.48301,-3.31618 1.86784,-1.8239 3.62582,-3.08643 3.90662,-2.80562 0.57944,0.57943 -9.92497,10.92557 -18.02568,17.75409 -2.99828,2.5274 -6.70955,4.80112 -8.34547,5.11285 -5.16926,0.98504 -10.78901,8.50191 -17.08362,22.85074 -1.75442,3.99925 -1.96033,4.36782 -4.94276,8.84657 -1.36111,2.04399 -2.47474,4.29735 -2.47474,5.00746 0,0.71011 1.9774,2.74264 4.39421,4.51675 6.21511,4.56231 10.17217,9.21994 13.96459,16.43693 2.27841,4.33582 4.04099,6.55566 5.73845,7.22715 3.75506,1.48546 4.47478,1.33607 4.47478,-0.9288 z m 9.67399,-9.25207 c 0.9899,-1.36577 3.77319,-4.85725 6.18508,-7.75885 2.41189,-2.90162 4.12407,-5.53684 3.80485,-5.85607 -1.25858,-1.25859 -17.63913,18.57472 -17.63913,21.35718 0,1.09674 4.66518,-3.62519 7.6492,-7.74226 z m 59.00713,0.9926 c 5.49572,-5.80522 16.44634,-19.2098 17.82769,-21.82273 2.67668,-5.06317 -2.3624,-0.48899 -11.64859,10.5739 -14.60888,17.40398 -18.20689,23.95403 -6.1791,11.24883 z m -97.83156,-25.18229 c 3.47025,-6.89069 1.39242,-6.58329 -3.53192,0.52251 -2.08376,3.00689 -2.30146,3.78622 -1.24073,4.44178 1.59811,0.98769 1.96991,0.60098 4.77265,-4.96429 z m 109.46709,-62.28168 c 0,-0.89866 6.52341,-9.69913 7.71384,-10.40643 1.25129,-0.74346 4.88486,-6.29012 4.88486,-7.45677 0,-1.57268 -4.86116,3.97543 -9.4825,10.82249 -2.67785,3.96756 -5.68035,8.22615 -6.67222,9.46352 -2.8216,3.52 -2.15135,4.33788 0.8563,1.04491 1.48485,-1.62569 2.69972,-3.18617 2.69972,-3.46772 z m -46.73247,-13.03552 c 0.97671,-0.83037 1.42845,-1.72446 1.00387,-1.98686 -1.16139,-0.71779 -7.08643,5.23489 -6.61583,6.64669 0.29249,0.87748 0.89606,0.60392 2.12243,-0.96194 0.94253,-1.20346 2.51281,-2.86751 3.48953,-3.69789 z m 66.45725,-13.31446 c 5.69667,-7.46881 6.83066,-9.60913 3.54343,-6.68802 -2.27705,2.02345 -9.76961,12.10329 -9.76961,13.1432 0,1.46713 0.87746,0.5574 6.22618,-6.45518 z m -60.56936,-0.50226 c 2.16703,-3.30732 0.90469,-3.73016 -1.41412,-0.47368 -1.0776,1.51334 -1.53607,2.75153 -1.01883,2.75153 0.51724,0 1.61206,-1.02503 2.43295,-2.27785 z m 146.01246,-3.61746 c 0.28445,-1.46784 0.13278,-1.53394 -1.12488,-0.49017 -1.71995,1.42743 -1.93411,3.09581 -0.32877,2.5613 0.61868,-0.206 1.27283,-1.13801 1.45365,-2.07113 z m 64.58971,-4.05684 c 2.90082,-2.99894 5.27423,-5.90114 5.27423,-6.44934 0,-1.86981 -1.99391,-1.6664 -3.87381,0.39522 -1.032,1.13174 -3.31604,3.63296 -5.07564,5.55825 -3.05871,3.34671 -4.10806,5.94849 -2.39915,5.94849 0.44008,0 3.17354,-2.45368 6.07437,-5.45262 z m -21.59405,-1.30814 c 0.28732,-0.74873 -0.0286,-2.02526 -0.7021,-2.83674 -2.10266,-2.53356 -10.52693,-8.40063 -12.06207,-8.40063 -1.97594,0 -1.19142,2.01324 1.26625,3.24947 2.92641,1.47201 6.49937,5.012 7.39263,7.32443 0.89048,2.30521 3.32436,2.69856 4.10529,0.66347 z m -118.91657,-2.23831 c 0.30589,-0.49494 0.15121,-0.8999 -0.34374,-0.8999 -0.49495,0 -1.15018,0.40496 -1.45608,0.8999 -0.30589,0.49495 -0.15121,0.89991 0.34374,0.89991 0.49495,0 1.15018,-0.40496 1.45608,-0.89991 z m -55.71259,-3.36802 c -0.62408,-0.62408 -2.33138,0.64393 -2.33138,1.73151 0,0.59673 0.51634,0.52845 1.37161,-0.18135 0.75438,-0.62608 1.18628,-1.32366 0.95977,-1.55016 z m 3.1632,-2.70634 c 0.76728,-0.86616 4.7582,-4.61203 8.86872,-8.32414 15.55936,-14.05131 26.13249,-25.71065 26.13249,-28.81717 0,-0.9121 0.70868,-1.90295 1.57484,-2.20187 1.80357,-0.62245 5.84783,-6.55673 5.39476,-7.91593 -0.31578,-0.94736 -2.92123,1.66812 -15.0295,15.08745 -4.01932,4.45454 -9.71605,10.73138 -12.65939,13.94855 -2.94333,3.21716 -6.60738,7.57046 -8.14232,9.67399 -1.53496,2.10354 -3.11268,3.82461 -3.50607,3.82461 -0.39338,0 -1.79631,1.41735 -3.11761,3.14967 -2.44368,3.20382 -2.06119,4.44814 0.48408,1.57484 z m 181.27455,-2.06501 2.62503,-2.73995 -3.1316,-2.42731 c -1.72237,-1.33503 -7.8657,-7.08759 -13.65185,-12.78345 -5.78614,-5.69587 -11.5799,-11.36852 -12.87502,-12.6059 -1.29513,-1.23737 -6.28001,-6.46052 -11.07751,-11.60701 -10.00801,-10.73603 -17.79949,-16.17323 -44.58257,-31.11151 -4.97126,-2.77271 -4.63487,-1.37102 0.76349,3.18144 1.9798,1.66957 8.05417,7.13671 13.4986,12.1492 5.44444,5.01249 10.38726,9.27699 10.98405,9.47667 1.10464,0.36958 4.06874,2.64068 10.00342,7.66464 1.8205,1.54112 4.5836,3.45309 6.14021,4.2488 3.49937,1.7888 33.61601,31.85417 33.61601,33.55877 0,0.67981 0.41498,1.23601 0.92218,1.23601 0.5072,0 1.3071,1.0124 1.77754,2.24977 1.10382,2.90326 1.8027,2.83458 4.98802,-0.49017 z m -52.76551,-2.11022 c 0.84297,-1.0157 -0.86847,-2.51382 -9.11384,-7.97789 -15.51419,-10.281 -17.66219,-11.52201 -18.26227,-10.55107 -1.16152,1.87939 21.68608,19.71162 25.32358,19.76469 0.55808,0.008 1.48172,-0.54794 2.05253,-1.23573 z m 79.90436,-2.90896 c 1.88069,-2.28771 5.37257,-6.23605 7.75973,-8.77408 4.73021,-5.02917 9.10156,-11.27066 8.39118,-11.98105 -1.27398,-1.27397 -4.69876,1.5391 -11.92879,9.79816 -9.99005,11.4119 -10.37331,11.95265 -9.70529,13.69348 0.85042,2.21614 1.80217,1.74114 5.48317,-2.73651 z m -54.62453,-1.96295 c 0,-0.39765 -4.96074,-5.56788 -11.02386,-11.48939 -6.06312,-5.9215 -12.6803,-12.58167 -14.70486,-14.80037 -2.02455,-2.21871 -6.27228,-6.46376 -9.4394,-9.43345 -3.16712,-2.96969 -7.8629,-7.8446 -10.43508,-10.83313 -2.57217,-2.98854 -9.00806,-9.06291 -14.30198,-13.4986 -5.2939,-4.4357 -12.64666,-10.59589 -16.33946,-13.68932 -3.69279,-3.09343 -7.24793,-5.62442 -7.90033,-5.62442 -1.55244,0 -6.00717,5.31001 -5.34864,6.37554 0.28,0.45304 1.95032,0.82371 3.71182,0.82371 2.27003,0 4.15459,0.80739 6.47121,2.7724 5.51809,4.68057 19.80682,18.00427 27.13791,25.30506 3.82713,3.81132 8.02006,7.19612 9.31764,7.52179 1.41704,0.35565 2.35923,1.21865 2.35923,2.16091 0,0.86284 1.11364,2.77071 2.47475,4.2397 8.40457,9.07078 11.49798,12.19084 17.59243,17.74399 9.21476,8.39629 20.42862,15.21706 20.42862,12.42558 z m 5.83437,-5.80132 c -1.85577,-2.10353 -4.83883,-5.24196 -6.62904,-6.97428 -1.7902,-1.73232 -4.76037,-4.85737 -6.60038,-6.94456 -1.84,-2.08719 -4.94438,-4.80425 -6.89863,-6.0379 -1.95423,-1.23367 -3.81358,-2.66438 -4.13187,-3.17939 -0.31829,-0.51501 -0.99934,-0.93637 -1.51345,-0.93637 -1.10971,0 27.23314,27.85566 28.36785,27.88022 0.4288,0.009 -0.73871,-1.70419 -2.59448,-3.80772 z m 31.06179,2.03257 c 0,-1.75636 -8.20078,-11.73337 -14.3985,-17.5171 -15.09752,-14.08905 -26.31001,-23.77606 -31.84042,-27.5085 -2.28995,-1.54546 -4.58101,-3.58999 -5.09126,-4.54339 -0.51024,-0.95341 -1.37876,-1.73346 -1.93003,-1.73346 -0.55127,0 -2.28525,-1.31612 -3.85327,-2.9247 -2.26759,-2.32625 -11.53784,-9.17118 -14.04593,-10.37119 -0.28422,-0.13598 3.56651,3.9136 8.55717,8.99907 10.54161,10.74187 27.79188,26.66165 31.5701,29.13514 1.43569,0.9399 4.247,3.50207 6.24735,5.69371 2.00035,2.19163 4.79738,5.02633 6.21564,6.29934 1.41826,1.27301 5.67032,5.24448 9.44902,8.82551 6.43057,6.09417 9.12013,7.75907 9.12013,5.64557 z m 8.08917,-7.64668 3.0428,-3.13937 -2.12322,-2.26007 c -1.16778,-1.24304 -3.03264,-2.26007 -4.14414,-2.26007 -1.11149,0 -4.96011,-2.02479 -8.55248,-4.49954 -3.59237,-2.47474 -7.26939,-4.49953 -8.17115,-4.49953 -0.90177,0 -1.63957,-0.60932 -1.63957,-1.35403 0,-1.43767 -16.85318,-14.23207 -28.12769,-21.35366 -7.66983,-4.84468 -9.66839,-5.76872 -9.66839,-4.47019 0,0.98659 8.49051,7.37994 9.80074,7.37994 0.43862,0 2.36124,1.3837 4.27247,3.0749 8.57576,7.58845 17.32561,14.92323 17.80231,14.92323 0.28661,0 1.25896,0.70868 2.16076,1.57484 0.90181,0.86616 4.95139,4.67707 8.99907,8.4687 4.04768,3.79162 7.35942,7.28562 7.35942,7.76442 0,0.99519 3.5743,3.67174 4.99792,3.7426 0.5216,0.026 2.31762,-1.36552 3.99115,-3.09217 z m -110.36267,-13.5339 c -0.29017,-0.75618 -1.3911,-1.82353 -2.4465,-2.37191 -1.76519,-0.91716 -1.74415,-0.80702 0.26274,1.37486 2.5095,2.72834 2.92005,2.91578 2.18376,0.99705 z m 44.22953,-6.7243 c -0.30589,-0.49495 -0.73475,-0.89991 -0.95301,-0.89991 -0.21827,0 -0.39685,0.40496 -0.39685,0.89991 0,0.49494 0.42886,0.8999 0.95302,0.8999 0.52416,0 0.70274,-0.40496 0.39684,-0.8999 z m -83.58265,-3.60371 c 2.15026,-1.98203 5.73892,-4.49247 7.97482,-5.57875 2.2359,-1.08629 4.06527,-2.25275 4.06527,-2.59215 0,-1.24522 -4.66385,-3.62676 -6.56911,-3.35444 -1.14513,0.16367 -2.48212,1.40554 -3.20861,2.98031 -0.685,1.48484 -2.3652,3.91459 -3.73376,5.39944 -2.45073,2.65896 -4.31314,6.7493 -3.0731,6.7493 0.34922,0 2.39424,-1.62167 4.54449,-3.60371 z m 169.48785,2.29708 c 0.59642,-0.71865 0.94972,-1.87936 0.78512,-2.57935 -0.16461,-0.7 -4.14639,-4.50121 -8.8484,-8.44713 -4.70201,-3.94593 -11.5863,-9.93248 -15.29841,-13.30344 -3.71212,-3.37097 -8.36913,-7.59621 -10.34893,-9.38943 -1.97979,-1.79321 -4.8145,-4.19524 -6.29934,-5.33785 -1.48485,-1.14261 -4.72451,-3.9996 -7.19926,-6.34889 -2.47474,-2.34929 -6.47352,-5.77348 -8.88616,-7.6093 -4.25468,-3.23746 -24.58229,-21.98311 -32.90419,-30.34346 -6.75626,-6.78749 -13.5539,-11.48159 -13.5539,-9.35962 0,0.25581 1.72108,2.17936 3.82461,4.27456 2.10353,2.09521 5.79881,6.03673 8.21175,8.75895 10.15409,11.45561 43.05165,44.09542 44.44363,44.09542 0.4454,0 2.87994,2.12603 5.41009,4.72451 5.98678,6.14845 8.86329,8.77409 9.61245,8.77409 0.3334,0 1.64681,1.2367 2.91868,2.74823 2.15053,2.55577 9.25663,7.94641 15.88868,12.05305 1.55674,0.96395 3.20324,2.36757 3.65889,3.11913 1.49555,2.46681 4.91401,5.47716 6.2197,5.47716 0.70433,0 1.76856,-0.58798 2.36499,-1.30663 z m -14.38755,-0.97316 c -0.62985,-0.75894 -3.81786,-3.46162 -7.08446,-6.00597 -3.26659,-2.54435 -7.51745,-6.07422 -9.44634,-7.84416 l -3.50708,-3.21807 3.46718,4.98198 c 3.71239,5.33433 13.2559,13.31756 16.03088,13.40998 1.41342,0.0471 1.50044,-0.16629 0.53982,-1.32376 z M 280.64762,223.30089 c 3.17419,-5.40569 -0.17254,-2.65164 -6.47735,5.33025 -3.51846,4.45438 -6.3972,8.38925 -6.3972,8.74416 0,1.0678 11.12351,-11.09238 12.87455,-14.07441 z m 41.56979,7.13036 c -1.60118,-1.76928 -2.24976,-2.17697 -2.24976,-1.41414 0,0.57866 2.74965,3.21396 3.35343,3.21396 0.28882,0 -0.20782,-0.80992 -1.10367,-1.79982 z m 96.36382,-0.81833 c -0.85524,-0.94503 -7.07518,-6.5132 -13.8221,-12.37371 -6.74691,-5.86051 -17.39082,-15.71745 -23.65314,-21.90431 -14.67,-14.49323 -26.37168,-25.77193 -31.31675,-30.18475 l -3.92491,-3.50246 -2.69533,3.0166 -2.69532,3.01658 6.42767,6.17782 c 3.53521,3.39779 6.96663,6.1778 7.62536,6.1778 0.65874,0 7.87265,5.56817 16.03091,12.37372 8.15826,6.80554 19.81441,16.42329 25.90257,21.37277 6.08815,4.94949 13.33691,10.89785 16.10834,13.2186 5.14265,4.30634 9.10337,6.0265 6.0127,2.61134 z m -108.34234,-10.20552 -6.56358,-6.52432 -1.73794,2.10612 c -1.72564,2.09123 -1.72371,2.11826 0.27199,3.81966 3.11761,2.65788 8.42416,6.015 10.25409,6.48713 4.23563,1.09282 3.89695,0.19632 -2.22456,-5.88859 z m 159.83316,4.54453 c 2.26717,-2.26717 2.02519,-2.50888 -8.5941,-8.58458 -2.10354,-1.20351 -3.82461,-1.82945 -3.82461,-1.39098 0,1.2935 9.04271,11.05545 10.24093,11.05545 0.60384,0 1.58384,-0.48595 2.17778,-1.07989 z m -52.5876,-11.58642 c -5.37675,-5.39276 -10.03914,-9.81095 -10.36086,-9.81819 -0.32171,-0.007 -1.99556,-1.32928 -3.71966,-2.93786 -1.7241,-1.60859 -5.51045,-5.15197 -8.41413,-7.87418 -2.90366,-2.72222 -6.39725,-5.80572 -7.76353,-6.85222 -1.36627,-1.0465 -3.66854,-3.47625 -5.11616,-5.39944 -1.44762,-1.92319 -5.50244,-6.53389 -9.0107,-10.24601 -3.50827,-3.71211 -7.88781,-9.06026 -9.7323,-11.88477 -3.502,-5.36268 -4.70348,-6.29064 -4.70348,-3.63267 0,5.84086 6.49321,15.33579 19.91777,29.12548 9.95356,10.22428 38.22495,34.98691 39.9444,34.98691 0.32748,0 2.27332,1.43624 4.32411,3.19163 2.12414,1.81819 3.87538,2.75155 4.06957,2.16898 0.18748,-0.56245 -4.05828,-5.4349 -9.43503,-10.82766 z m -79.91675,9.88264 c 0.62283,-1.00775 -5.92655,-8.32913 -8.91112,-9.96149 -2.89043,-1.58089 -0.85357,2.82248 3.29384,7.12074 3.90405,4.04605 4.64179,4.41914 5.61728,2.84075 z m 138.5542,-6.27989 c 0.70361,-2.21689 -1.74425,-5.33495 -4.18825,-5.33495 -2.46196,0 -18.62938,-10.81708 -30.69276,-20.5355 -3.8826,-3.12788 -7.54879,-5.51734 -8.14708,-5.30991 -1.34248,0.46544 12.75688,14.70276 18.10881,18.28599 13.74912,9.20536 22.34152,14.63132 23.26333,14.69043 0.58533,0.0375 1.33051,-0.77069 1.65595,-1.79606 z m -24.42569,-3.20371 c -4.53795,-5.83653 -16.93719,-17.73934 -22.84376,-21.92918 -3.13987,-2.22727 -8.00342,-6.07437 -10.8079,-8.54911 -2.80448,-2.47475 -9.14379,-7.83489 -14.08737,-11.91143 -4.94357,-4.07654 -11.38633,-9.96205 -14.31727,-13.07892 -6.16733,-6.55861 -15.32238,-17.2798 -16.40018,-19.20572 -1.07672,-1.92398 -3.77722,-0.55361 -3.77722,1.91675 0,1.2396 1.1762,3.05332 2.92469,4.5099 3.16353,2.63538 16.57955,15.10169 28.12208,26.13138 3.95959,3.78365 10.03396,9.06072 13.4986,11.72681 7.33209,5.64216 14.7871,12.08955 26.08765,22.56163 4.44924,4.12306 8.44053,7.49646 8.86955,7.49646 0.42901,0 1.59316,1.03373 2.58697,2.29716 0.99382,1.26344 2.01601,2.08809 2.27154,1.83256 0.25553,-0.25553 -0.70179,-1.96476 -2.12738,-3.79829 z m -68.33672,1.09201 c -1.88491,-1.37828 -2.73909,-1.22684 -1.78525,0.31651 0.32625,0.52787 1.25411,0.95977 2.06193,0.95977 1.22833,0 1.18305,-0.2089 -0.27668,-1.27628 z m -30.54525,-12.87289 c -10.45586,-10.11444 -22.38355,-20.04727 -24.07346,-20.04727 -1.57176,0 -5.17912,3.75353 -5.12371,5.33132 0.0274,0.77989 1.19296,2.31911 2.59017,3.42049 3.37695,2.66195 24.99291,15.33327 30.37006,17.80298 1.57474,0.72327 3.11723,1.72614 3.42776,2.22858 0.31053,0.50245 1.0469,0.89691 1.63638,0.87658 0.58947,-0.0203 -3.38277,-4.34603 -8.8272,-9.61268 z m 20.69785,-0.83516 c -5.61745,-5.12463 -26.31015,-21.01193 -27.36739,-21.01193 -1.1311,0 9.32775,9.65466 17.55935,16.20918 2.97424,2.36829 13.13858,8.98992 13.73518,8.94788 0.31482,-0.0221 -1.4524,-1.88749 -3.92714,-4.14513 z m 116.33759,-6.47186 c 2.1171,-3.29502 6.01644,-8.54648 8.66519,-11.6699 3.11823,-3.67703 5.02596,-6.84935 5.41175,-8.99907 1.24559,-6.94067 1.5945,-36.57482 0.51589,-43.81591 -0.58982,-3.95959 -1.27695,-8.93866 -1.52697,-11.0646 -0.32924,-2.79961 -1.06028,-4.26223 -2.65139,-5.30476 -1.20824,-0.79166 -2.07469,-2.07348 -1.92544,-2.84846 0.28891,-1.50022 -2.65299,-4.92002 -9.11092,-10.5909 -3.94093,-3.46065 -3.96709,-3.46854 -3.35751,-1.01307 0.3379,1.3611 0.37755,2.47474 0.0881,2.47474 -1.82584,0 -4.10984,-2.34436 -5.90313,-6.05912 -2.38408,-4.93854 -1.82051,-4.14525 -8.96132,-12.61394 -3.02573,-3.58838 -5.06039,-6.52432 -4.52147,-6.52432 2.0321,0 0.83345,-2.16586 -3.54829,-6.41144 -4.86836,-4.71708 -7.0628,-5.44417 -7.8098,-2.58763 -0.25887,0.9899 -0.92963,1.79616 -1.49059,1.7917 -0.56095,-0.004 -2.09111,1.29523 -3.40034,2.8882 -1.96566,2.39168 -2.61306,2.70322 -3.71572,1.7881 -1.09556,-0.90924 -1.98265,-0.57954 -4.94071,1.83631 -1.98297,1.61949 -5.89344,4.7006 -8.68991,6.84691 -2.79649,2.14631 -7.15891,6.39836 -9.69429,9.44901 -2.53538,3.05065 -7.07679,7.51855 -10.09203,9.92867 -8.50022,6.79433 -15.83117,13.90561 -15.83117,15.35679 0,0.72394 0.98715,2.38141 2.19368,3.68327 1.20652,1.30187 3.88777,4.92515 5.95832,8.05176 2.07055,3.1266 4.62677,6.07662 5.6805,6.5556 1.05372,0.47898 3.33321,1.50767 5.06553,2.28598 2.58847,1.16297 2.7889,1.42537 1.12489,1.47267 -3.28652,0.0934 -2.43348,3.10548 1.88068,6.64061 2.14802,1.76014 7.91867,5.92146 12.82367,9.24738 4.90501,3.32593 9.52563,6.54547 10.26805,7.15453 4.69534,3.85196 21.59776,21.90734 21.59776,23.071 0,3.54745 7.14317,10.12454 16.56869,15.25568 3.49776,1.90414 4.51023,1.22297 9.3283,-6.27579 z m -10.93144,-8.95115 c -0.75783,-1.2262 0.83153,-6.09746 2.96872,-9.09887 1.02502,-1.4395 1.86367,-2.89585 1.86367,-3.23632 0,-0.34048 0.80992,-1.64869 1.79981,-2.90714 2.08157,-2.64627 2.37255,-4.90838 0.54098,-4.20554 -2.0906,0.80224 -2.5173,-1.23432 -0.80335,-3.8342 2.50689,-3.80267 3.65996,-12.03325 2.91927,-20.83767 -0.57238,-6.80368 -1.18945,-8.86188 -4.77109,-15.91352 -3.48355,-6.85851 -4.01223,-8.57132 -3.45136,-11.18154 0.72847,-3.39019 2.16933,-4.40205 3.68834,-2.5902 3.95693,4.71973 7.62102,11.74521 9.63223,18.46866 1.30003,4.34597 3.16251,10.534 4.13883,13.75116 1.25255,4.12734 1.8163,8.80915 1.91493,15.90292 0.12372,8.89865 -0.0747,10.34133 -1.72749,12.55897 -1.027,1.37799 -3.12094,2.83029 -4.6532,3.22734 -1.85134,0.47973 -3.89215,2.2289 -6.08354,5.21419 -1.81371,2.47075 -3.635,4.49228 -4.04731,4.49228 -0.41232,0 -1.34925,0.23009 -2.08209,0.5113 -0.73284,0.28122 -1.56415,0.1364 -1.84735,-0.32182 z m 18.11232,-29.74952 c 0.4644,-6.49065 -0.13928,-10.93575 -1.48516,-10.93575 -0.4233,0 -0.80505,4.31755 -0.84833,9.59457 -0.0568,6.92525 0.19423,9.32164 0.90232,8.61355 0.53956,-0.53956 1.18359,-3.81213 1.43117,-7.27237 z m -3.28663,-47.00838 c -1.18549,-0.47421 -1.95033,-1.06731 -1.69964,-1.318 0.52546,-0.52546 5.20494,1.11265 5.20494,1.82205 0,0.64956 -0.97005,0.51007 -3.5053,-0.50405 z m -6.84363,-5.32307 c -0.30589,-0.49495 0.0513,-0.8999 0.79369,-0.8999 0.74243,0 1.60014,0.40495 1.90603,0.8999 0.3059,0.49495 -0.0513,0.89991 -0.79369,0.89991 -0.74242,0 -1.60013,-0.40496 -1.90603,-0.89991 z m -26.54724,81.89149 c -0.52977,-0.98989 -1.59974,-1.79981 -2.3777,-1.79981 -0.85041,0 -1.21946,-0.50824 -0.92542,-1.27448 0.60274,-1.5707 -11.50996,-13.65638 -18.65605,-18.61446 -5.0545,-3.50689 -6.83784,-4.2135 -6.83784,-2.70933 0,1.65347 18.92356,19.34225 22.99042,21.49027 1.18895,0.62797 2.5911,1.94409 3.11591,2.9247 0.52481,0.98061 1.56163,1.78293 2.30406,1.78293 1.07099,0 1.15087,-0.37182 0.38662,-1.79982 z m -41.3957,-8.4423 c 0,-0.68368 -1.51859,-2.38242 -3.37465,-3.77498 -1.85605,-1.39257 -3.68447,-3.03542 -4.06315,-3.65079 -1.46419,-2.37938 -17.14096,-17.03407 -19.67001,-18.38757 -6.20533,-3.321 5.38268,9.56177 17.6588,19.63184 2.96969,2.43603 5.95522,5.10312 6.6345,5.92685 1.50152,1.8208 2.81451,1.9396 2.81451,0.25465 z m 96.04544,-20.59504 c 2.44241,-5.73587 3.60874,-12.35836 2.17653,-12.35836 -0.54878,0 -1.23087,1.11364 -1.51577,2.47475 -0.84766,4.04967 -2.00095,8.58451 -2.97523,11.69878 -1.43719,4.594 0.0981,3.38993 2.31447,-1.81517 z m -116.74329,-7.84029 c 0,-2.04952 -14.53223,-13.51713 -17.12947,-13.51713 -1.70722,0 -0.69851,1.39763 3.24746,4.49953 2.20371,1.73232 5.84835,4.66827 8.09921,6.52432 4.12369,3.40041 5.7828,4.11574 5.7828,2.49328 z m 138.81792,-3.18147 c 7.49869,-4.50709 9.37376,-7.28886 8.29153,-12.30101 -0.88502,-4.0989 -3.43095,-8.89759 -5.96119,-11.236 -1.16199,-1.07389 -3.30226,-3.20836 -4.75618,-4.74326 -1.45391,-1.5349 -3.07374,-2.6483 -3.59962,-2.47422 -0.55863,0.18493 -1.0648,3.82783 -1.21747,8.76213 -0.19212,6.2091 -0.64385,8.86831 -1.70584,10.0418 -1.14005,1.25974 -1.33342,2.78598 -0.9174,7.24104 0.56553,6.05618 1.31389,8.77236 2.41692,8.77236 0.37931,0 3.73147,-1.82827 7.44925,-4.06284 z m -23.63687,-5.79911 c 1.38966,-7.3649 0.28715,-14.4924 -2.86077,-18.49433 -3.18997,-4.0554 -3.77321,-1.68945 -2.48067,10.06305 0.64385,5.85421 1.23959,11.8589 1.32386,13.34375 0.24348,4.2896 0.41219,4.59166 1.65261,2.95894 0.64374,-0.84733 1.70798,-4.38946 2.36497,-7.87141 z M 397.32725,127.16698 c -0.0784,-1.63411 -4.34905,-5.80364 -5.32601,-5.19984 -1.27815,0.78994 1.34028,4.07496 3.24808,4.07496 0.6657,0 1.21038,0.40496 1.21038,0.89991 0,0.49495 0.20248,0.8999 0.44995,0.8999 0.24748,0 0.4354,-0.30371 0.4176,-0.67493 z m 119.71992,-24.86559 c 0,-0.68368 -1.39034,-2.30351 -3.08963,-3.59963 -4.92184,-3.75407 -6.28506,-2.934 -3.63656,2.18765 1.05351,2.03726 1.99576,2.65503 4.04958,2.65503 1.67706,0 2.67661,-0.46421 2.67661,-1.24305 z M 441.28866,71.67401 c 4.03407,-4.37645 4.9593,-6.62761 2.09362,-5.09394 -0.9198,0.49226 -2.39629,2.0251 -3.28109,3.40631 -0.8848,1.38121 -2.96968,3.65666 -4.63306,5.05656 -1.66339,1.3999 -3.4829,3.4021 -4.04336,4.44934 -1.39436,2.60538 4.73076,-2.24949 9.86389,-7.81827 z m 20.20227,-12.76292 c 0.87575,-0.87574 -0.32666,-3.0617 -1.6841,-3.0617 -0.68946,0 -1.25358,0.16936 -1.25358,0.37636 0,0.20699 -0.2458,1.01691 -0.54623,1.79981 -0.38244,0.99661 -0.0226,1.42346 1.19987,1.42346 0.96036,0 1.98818,-0.24207 2.28404,-0.53793 z M 55.395145,567.43643 c 0,-1.90695 3.63706,-9.43921 4.55785,-9.43921 0.41802,0 1.02096,-1.39088 1.33987,-3.09084 0.31892,-1.69997 1.34967,-3.78752 2.29055,-4.63901 0.94088,-0.85149 1.7107,-2.5105 1.7107,-3.6867 0,-1.17619 0.60744,-2.37163 1.34986,-2.65652 0.74242,-0.2849 1.34986,-1.37228 1.34986,-2.41642 0,-2.20476 2.56246,-9.4833 3.97956,-11.30373 0.53346,-0.68528 1.98232,-3.173 3.21969,-5.52826 4.83119,-9.19585 6.44483,-11.82832 6.94434,-11.32882 0.28569,0.28569 -0.75495,3.1081 -2.31255,6.27201 -1.55758,3.16392 -2.83198,6.04233 -2.83198,6.39649 0,0.35416 -1.25212,3.34165 -2.78248,6.63887 -5.28356,11.38358 -11.84691,28.44594 -11.98298,31.15144 -0.0957,1.90232 -0.80141,3.05057 -2.35951,3.83898 -2.97796,1.50686 -4.47278,1.43725 -4.47278,-0.20828 z m 27.8971,-58.48411 c 0,-0.74243 0.39225,-1.34986 0.87167,-1.34986 0.4794,0 0.63856,0.60743 0.35367,1.34986 -0.2849,0.74242 -0.67715,1.34986 -0.87167,1.34986 -0.19451,0 -0.35367,-0.60744 -0.35367,-1.34986 z"
     id="path2987"
     style="fill:#333333" />
</svg>
